<?xml version="1.0" encoding="UTF-8" standalone="no"?>
<!DOCTYPE svg PUBLIC "-//W3C//DTD SVG 1.1//EN" "http://www.w3.org/Graphics/SVG/1.1/DTD/svg11.dtd">
<svg width="100%" height="100%" viewBox="0 0 297 297" version="1.1" xmlns="http://www.w3.org/2000/svg" xmlns:xlink="http://www.w3.org/1999/xlink" xml:space="preserve" style="fill-rule:evenodd;clip-rule:evenodd;stroke-linejoin:round;stroke-miterlimit:1.41421;">
    <g>
        <g transform="matrix(1,0,0,1,0,-10.5164)">
            <path d="M167.666,250.543C167.613,250.525 162.995,249.108 162.995,249.108C161.308,248.59 159.488,248.723 157.894,249.48L148.5,249.059L139.106,249.48C137.512,248.723 135.692,248.591 134.005,249.108C134.005,249.108 129.388,250.526 129.334,250.543C121.283,253.226 115.875,260.729 115.875,269.214L115.875,289.943C115.875,293.841 119.034,297 122.932,297L174.067,297C177.965,297 181.124,293.841 181.124,289.943L181.124,269.214C181.124,260.729 175.716,253.226 167.666,250.543Z" style="fill:white;fill-rule:nonzero;"/>
        </g>
        <g transform="matrix(1,0,0,1,0.542583,-7.79907)">
            <path d="M126.335,222.662C126.335,234.884 136.278,244.827 148.5,244.827C160.722,244.827 170.665,234.884 170.665,222.662C170.665,210.44 160.722,200.497 148.5,200.497C136.278,200.497 126.335,210.44 126.335,222.662Z" style="fill:white;fill-rule:nonzero;"/>
        </g>
        <g transform="matrix(1,0,0,1,0,3.49811)">
            <path d="M122.933,97.384L174.068,97.384C177.966,97.384 181.125,94.225 181.125,90.327L181.125,69.598C181.125,61.113 175.717,53.61 167.666,50.927C167.613,50.909 162.995,49.492 162.995,49.492C161.308,48.973 159.488,49.106 157.894,49.864L148.5,50.614L139.106,49.863C137.512,49.106 135.692,48.973 134.005,49.491C134.005,49.491 129.388,50.909 129.334,50.926C121.283,53.609 115.875,61.112 115.875,69.597L115.875,90.326C115.876,94.225 119.035,97.384 122.933,97.384Z" style="fill:white;fill-rule:nonzero;"/>
        </g>
        <g transform="matrix(1,0,0,1,0.542583,8.21373)">
            <path d="M148.5,44.33C160.722,44.33 170.665,34.387 170.665,22.165C170.665,9.943 160.722,0 148.5,0C136.278,0 126.335,9.943 126.335,22.165C126.335,34.387 136.278,44.33 148.5,44.33Z" style="fill:white;fill-rule:nonzero;"/>
        </g>
        <g transform="matrix(1,0,0,1,0,-10.5164)">
            <path d="M60.156,250.543C60.103,250.525 55.484,249.107 55.484,249.107C53.797,248.591 51.977,248.722 50.383,249.481L40.99,250.643L31.596,249.48C30.002,248.723 28.183,248.591 26.495,249.108C26.495,249.108 21.878,250.526 21.824,250.543C13.773,253.226 8.365,260.729 8.365,269.214L8.365,289.943C8.365,293.841 11.524,297 15.422,297L66.556,297C70.454,297 73.613,293.841 73.613,289.943L73.613,269.214C73.614,260.729 68.205,253.225 60.156,250.543Z" style="fill:white;fill-rule:nonzero;"/>
        </g>
        <g transform="matrix(1,0,0,1,0.542583,-7.79907)">
            <path d="M40.99,244.827C53.212,244.827 63.155,234.884 63.155,222.662C63.155,210.44 53.212,200.497 40.99,200.497C28.768,200.497 18.825,210.44 18.825,222.662C18.825,234.884 28.768,244.827 40.99,244.827Z" style="fill:white;fill-rule:nonzero;"/>
        </g>
        <g transform="matrix(1,0,0,1,0,-10.5164)">
            <path d="M275.176,250.543C275.123,250.525 270.505,249.108 270.505,249.108C268.817,248.59 266.998,248.723 265.404,249.48L255.617,250.297L246.617,249.481C245.023,248.723 243.203,248.592 241.516,249.107C241.516,249.107 236.898,250.526 236.844,250.543C228.794,253.225 223.386,260.729 223.386,269.214L223.386,289.943C223.386,293.841 226.545,297 230.443,297L281.577,297C285.475,297 288.634,293.841 288.634,289.943L288.634,269.214C288.634,260.729 283.226,253.226 275.176,250.543Z" style="fill:white;fill-rule:nonzero;"/>
        </g>
        <g transform="matrix(1,0,0,1,0.542583,-7.79907)">
            <path d="M233.845,222.662C233.845,234.884 243.788,244.827 256.01,244.827C268.232,244.827 278.175,234.884 278.175,222.662C278.175,210.44 268.232,200.497 256.01,200.497C243.788,200.497 233.845,210.44 233.845,222.662Z" style="fill:white;fill-rule:nonzero;"/>
        </g>
        <path d="M40.99,182.07C45.723,182.07 49.559,178.233 49.559,173.501L49.559,156.349L140.495,132.381L139.93,173.5C139.93,178.233 143.767,182.069 148.499,182.069C153.231,182.069 157.068,178.232 157.068,173.5L157.633,132.38L247.439,156.348L247.439,173.5C247.439,178.233 251.276,182.069 256.008,182.069C260.741,182.069 264.577,178.232 264.577,173.5L264.577,147.779C264.577,143.046 260.74,139.21 256.008,139.21L157.632,115.242L157.067,115.531C157.067,110.798 153.23,106.962 148.498,106.962C143.766,106.962 139.929,110.799 139.929,115.531L140.494,115.242L40.99,139.21C36.257,139.21 32.421,143.047 32.421,147.779L32.421,173.5C32.421,178.233 36.257,182.07 40.99,182.07Z" style="fill:white;fill-rule:nonzero;"/>
    </g>
</svg>
