<?xml version="1.0" encoding="UTF-8" standalone="no"?>
<!DOCTYPE svg PUBLIC "-//W3C//DTD SVG 1.1//EN" "http://www.w3.org/Graphics/SVG/1.1/DTD/svg11.dtd">
<svg width="100%" height="100%" viewBox="0 0 88 100" version="1.1" xmlns="http://www.w3.org/2000/svg" xmlns:xlink="http://www.w3.org/1999/xlink" xml:space="preserve" style="fill-rule:evenodd;clip-rule:evenodd;stroke-linejoin:round;stroke-miterlimit:1.41421;">
    <path d="M43,26C41.344,26 40,27.343 40,29L40,57C40,58.657 41.344,60 43,60C44.656,60 46,58.657 46,57L46,29C46,27.343 44.656,26 43,26Z" style="fill:black;fill-rule:nonzero;"/>
    <path d="M87.506,23.807C87.506,23.807 86.092,19.565 83.263,16.737C80.435,13.908 76.193,12.494 76.193,12.494L67.205,21.482C62.408,18.202 56.916,15.876 51,14.758L51,2C51,2 47,0 43,0C39,0 35,2 35,2L35,14.758C15.102,18.52 0,36.024 0,57C0,80.71 19.29,100 43,100C66.71,100 86,80.71 86,57C86,48.029 83.235,39.695 78.518,32.795L87.506,23.807ZM43,94C22.598,94 6,77.402 6,57C6,36.598 22.598,20 43,20C63.402,20 80,36.598 80,57C80,77.402 63.402,94 43,94Z" style="fill:black;fill-rule:nonzero;"/>
</svg>
