<?xml version="1.0" encoding="UTF-8" standalone="no"?>
<!DOCTYPE svg PUBLIC "-//W3C//DTD SVG 1.1//EN" "http://www.w3.org/Graphics/SVG/1.1/DTD/svg11.dtd">
<svg width="100%" height="100%" viewBox="0 0 485 485" version="1.1" xmlns="http://www.w3.org/2000/svg" xmlns:xlink="http://www.w3.org/1999/xlink" xml:space="preserve" style="fill-rule:evenodd;clip-rule:evenodd;stroke-linejoin:round;stroke-miterlimit:1.41421;">
    <g>
        <g transform="matrix(0.917819,0,0,1.07179,7.73039,-20.7119)">
            <path d="M483.8,46.25L181.6,46.25C181,46.25 180.4,46.75 180.4,47.45L180.4,75.75C180.4,76.35 180.9,76.95 181.6,76.95L483.8,76.95C484.4,76.95 485,76.45 485,75.75L485,47.45C485,46.75 484.5,46.25 483.8,46.25Z" style="fill:white;fill-rule:nonzero;"/>
        </g>
        <g transform="matrix(1.07179,0,0,1.07179,5.55211,-21.4762)">
            <circle cx="71.5" cy="253.35" r="37.9" style="fill:white;"/>
        </g>
        <g transform="matrix(1.07179,0,0,1.07179,5.55211,-21.4762)">
            <circle cx="71.5" cy="419.55" r="38.1" style="fill:white;"/>
        </g>
        <g transform="matrix(1.07179,0,0,1.07179,-20.0458,-20.7119)">
            <path d="M181.6,128.15L324.4,128.15C325,128.15 325.6,127.65 325.6,126.95L325.6,98.65C325.6,98.05 325.1,97.45 324.4,97.45L181.6,97.45C181,97.45 180.4,97.95 180.4,98.65L180.4,126.95C180.5,127.65 181,128.15 181.6,128.15Z" style="fill:white;fill-rule:nonzero;"/>
        </g>
        <g transform="matrix(0.917819,0,0,1.07179,7.73039,-20.7119)">
            <path d="M483.8,212.45L181.6,212.45C181,212.45 180.4,212.95 180.4,213.65L180.4,241.95C180.4,242.55 180.9,243.15 181.6,243.15L483.8,243.15C484.4,243.15 485,242.65 485,241.95L485,213.65C485,212.95 484.5,212.45 483.8,212.45Z" style="fill:white;fill-rule:nonzero;"/>
        </g>
        <g transform="matrix(1.07179,0,0,1.07179,-20.0458,-20.7119)">
            <path d="M181.6,294.35L324.4,294.35C325,294.35 325.6,293.85 325.6,293.15L325.6,264.85C325.6,264.25 325.1,263.65 324.4,263.65L181.6,263.65C181,263.65 180.4,264.15 180.4,264.85L180.4,293.15C180.5,293.75 181,294.35 181.6,294.35Z" style="fill:white;fill-rule:nonzero;"/>
        </g>
        <g transform="matrix(0.917819,0,0,1.07179,7.73039,-20.7119)">
            <path d="M483.8,378.55L181.6,378.55C181,378.55 180.4,379.05 180.4,379.75L180.4,408.05C180.4,408.65 180.9,409.25 181.6,409.25L483.8,409.25C484.4,409.25 485,408.75 485,408.05L485,379.75C485,379.05 484.5,378.55 483.8,378.55Z" style="fill:white;fill-rule:nonzero;"/>
        </g>
        <g transform="matrix(1.07179,0,0,1.07179,-20.0458,-20.7119)">
            <path d="M324.4,429.85L181.6,429.85C181,429.85 180.4,430.35 180.4,431.05L180.4,459.35C180.4,459.95 180.9,460.55 181.6,460.55L324.4,460.55C325,460.55 325.6,460.05 325.6,459.35L325.6,431.05C325.6,430.35 325.1,429.85 324.4,429.85Z" style="fill:white;fill-rule:nonzero;"/>
        </g>
        <g transform="matrix(0.880792,0,0,0.880792,27.0349,0.735209)">
            <path d="M53.4,86.55L27.3,60.25L0,87.45L26.2,113.65L53.3,140.95L80.5,113.85L143,51.75L115.9,24.45L53.4,86.55Z" style="fill:white;fill-rule:nonzero;"/>
        </g>
    </g>
</svg>
